<?xml version="1.0" standalone="no"?>
<!DOCTYPE svg PUBLIC "-//W3C//DTD SVG 20010904//EN"
 "http://www.w3.org/TR/2001/REC-SVG-20010904/DTD/svg10.dtd">
<svg version="1.0" xmlns="http://www.w3.org/2000/svg"
 width="640.000000pt" height="640.000000pt" viewBox="0 0 640.000000 640.000000"
 preserveAspectRatio="xMidYMid meet">
<metadata>
Created by potrace 1.11, written by Peter Selinger 2001-2013
</metadata>
<g transform="translate(0.000000,640.000000) scale(0.100000,-0.100000)"
fill="#000000" stroke="none">
<path d="M898 6378 c-3 -21 -11 -24 -111 -35 -92 -11 -112 -17 -135 -38 -15
-14 -51 -33 -80 -41 -28 -9 -57 -24 -62 -34 -5 -10 -23 -21 -38 -25 -29 -6
-58 -30 -124 -103 -21 -23 -49 -44 -62 -48 -15 -3 -33 -23 -50 -54 -14 -26
-33 -53 -41 -60 -8 -7 -15 -19 -15 -26 0 -8 -4 -14 -10 -14 -5 0 -10 -6 -10
-13 0 -8 -10 -18 -23 -24 -16 -7 -28 -28 -41 -72 -10 -33 -22 -61 -26 -61 -5
0 -13 -26 -19 -57 -25 -130 -34 -169 -42 -188 -14 -30 -7 -848 7 -866 6 -8 18
-35 27 -61 15 -44 59 -115 82 -130 5 -3 19 -13 30 -22 11 -9 34 -25 51 -35 24
-15 33 -28 36 -55 4 -37 -12 -87 -36 -116 -7 -8 -16 -29 -19 -47 -4 -18 -22
-52 -41 -77 -19 -25 -37 -60 -41 -78 -4 -18 -15 -49 -25 -68 -11 -19 -26 -60
-34 -91 -9 -31 -23 -62 -31 -69 -12 -10 -15 -39 -15 -141 0 -71 4 -129 9 -129
5 0 19 33 31 73 13 39 29 79 35 87 7 8 21 39 31 68 19 53 19 53 58 50 55 -4
63 -23 42 -90 -22 -72 -23 -199 -1 -263 10 -27 21 -77 25 -110 6 -51 4 -66
-15 -105 -12 -25 -26 -64 -30 -87 -4 -24 -20 -57 -39 -80 -17 -21 -37 -60 -44
-88 -7 -27 -22 -62 -32 -77 -11 -15 -25 -51 -31 -80 -6 -29 -17 -63 -25 -75
-9 -14 -14 -51 -14 -103 0 -71 2 -81 17 -78 30 6 80 90 88 148 5 37 15 61 32
78 30 30 53 81 53 117 0 19 8 29 30 39 17 7 28 15 25 18 -9 9 25 78 38 78 18
0 37 -21 37 -39 0 -8 -11 -26 -25 -41 -18 -19 -27 -43 -34 -95 -14 -102 -21
-124 -47 -152 -28 -30 -30 -46 -9 -67 19 -19 154 -62 223 -71 32 -4 63 -16 80
-30 15 -12 42 -30 60 -39 32 -16 35 -16 65 1 23 14 33 28 35 48 5 52 10 59 28
44 9 -8 22 -14 28 -14 6 0 21 -7 34 -16 22 -16 22 -20 13 -77 -5 -34 -15 -70
-20 -81 -17 -30 -14 -211 4 -261 8 -23 12 -46 9 -51 -10 -17 20 -94 48 -122
15 -16 28 -35 28 -42 0 -8 13 -24 30 -37 16 -12 32 -30 36 -40 3 -10 18 -25
33 -32 14 -8 33 -26 40 -39 8 -14 25 -28 39 -32 15 -4 36 -17 49 -29 12 -12
42 -28 65 -35 24 -8 58 -26 76 -42 19 -17 44 -29 60 -29 16 0 40 -12 59 -29
18 -16 47 -32 65 -36 18 -4 52 -20 75 -36 28 -20 59 -30 100 -35 44 -5 63 -12
79 -30 15 -18 34 -26 75 -30 30 -4 79 -19 111 -35 48 -24 73 -29 170 -35 116
-6 169 -23 150 -47 -6 -7 -12 -23 -14 -37 -2 -20 -13 -28 -57 -43 -77 -26
-141 -85 -213 -201 -46 -73 -88 -209 -88 -283 0 -20 -7 -37 -20 -46 -11 -7
-25 -36 -32 -64 -9 -32 -24 -61 -44 -79 -26 -24 -31 -37 -32 -79 -3 -59 -19
-116 -38 -131 -16 -13 -48 -216 -39 -250 2 -12 13 -25 22 -29 10 -4 155 -6
323 -4 655 8 887 0 927 -33 8 -7 30 -8 61 -3 26 4 127 9 225 10 98 1 234 8
302 15 112 12 135 12 242 -5 65 -11 183 -21 262 -23 125 -3 145 -1 155 14 8
10 32 18 63 21 44 5 53 3 65 -16 17 -28 92 -30 102 -3 3 9 13 28 22 42 19 31
12 157 -11 203 -8 17 -15 36 -15 43 0 7 -4 14 -9 16 -6 2 -13 30 -16 63 -4 38
-15 73 -31 97 -15 24 -24 52 -24 77 0 22 -4 43 -10 46 -5 3 -10 31 -10 60 0
46 -4 57 -24 70 -13 9 -32 37 -41 63 -10 26 -26 59 -36 74 -12 15 -19 43 -19
70 0 59 -15 108 -39 125 -11 7 -25 33 -31 56 -15 57 -29 91 -37 83 -7 -7 -43
23 -43 36 0 15 -73 98 -86 98 -6 0 -27 11 -46 24 -19 12 -59 31 -89 40 -71 22
-81 29 -74 48 9 23 90 55 186 74 84 17 126 32 151 57 7 7 33 19 58 27 25 7 52
19 60 26 22 18 89 44 113 44 11 0 35 11 53 25 18 14 37 25 42 25 23 0 103 43
112 60 6 11 18 20 28 20 9 0 38 11 62 24 25 13 71 32 102 41 31 9 62 23 68 31
7 8 45 24 84 36 39 11 80 27 91 35 11 7 36 18 56 23 20 6 41 20 48 33 7 13 26
31 42 41 16 9 29 21 29 26 0 5 11 20 24 33 13 13 31 48 41 78 10 30 21 56 25
59 21 15 29 57 29 143 -1 82 2 102 22 136 12 23 26 41 30 41 3 0 12 15 18 33
7 17 23 55 36 82 13 28 30 70 37 94 7 25 18 46 25 48 13 5 53 -35 53 -54 0 -7
11 -37 25 -67 14 -30 25 -61 25 -70 0 -8 12 -28 26 -45 14 -17 32 -52 40 -78
15 -50 78 -148 100 -157 7 -3 23 -23 34 -46 11 -23 28 -44 36 -47 8 -3 21 -21
29 -39 8 -19 25 -39 37 -45 13 -6 28 -20 33 -32 7 -14 22 -24 46 -28 20 -3 50
-15 67 -28 18 -12 53 -26 79 -30 63 -11 99 -26 106 -44 3 -9 19 -15 41 -15 40
0 68 29 82 84 4 16 20 46 35 67 15 21 31 51 34 67 3 16 17 35 29 44 23 14 29
28 87 191 28 80 41 215 20 215 -5 0 -11 9 -14 20 -3 11 -21 29 -41 40 -19 12
-38 30 -41 40 -3 10 -17 25 -30 34 -32 21 -33 52 -2 60 28 7 61 -2 105 -26
l32 -18 0 60 c0 57 -1 60 -27 66 -53 11 -63 15 -79 31 -11 12 -39 18 -93 20
-75 4 -76 5 -114 46 -20 23 -40 51 -43 62 -13 47 -27 75 -38 75 -6 0 -20 17
-31 38 -11 20 -30 50 -42 65 -13 16 -23 41 -23 56 0 14 -6 35 -14 46 -21 30
-27 78 -13 96 16 22 55 33 70 21 7 -6 38 -18 69 -27 31 -9 67 -24 80 -34 32
-24 96 -41 155 -41 34 0 65 -8 97 -25 l46 -24 0 74 c0 68 -2 75 -20 75 -11 0
-20 4 -20 8 0 14 -47 31 -118 42 -41 7 -81 21 -102 35 -20 14 -63 30 -95 36
-33 6 -73 16 -90 23 -16 7 -48 19 -70 26 -48 15 -65 27 -65 47 0 16 24 43 38
43 5 0 20 8 33 18 13 11 46 24 74 31 40 10 60 24 107 73 32 34 67 66 80 72 12
6 25 24 29 40 5 16 16 38 27 50 54 60 112 169 112 210 0 11 9 40 20 63 10 23
24 86 30 140 6 54 13 121 16 148 3 28 8 154 11 281 6 261 -7 386 -50 470 -14
27 -27 67 -30 89 -4 26 -14 46 -31 60 -14 11 -26 26 -26 33 0 19 -23 54 -52
80 -16 13 -28 30 -28 38 0 7 -14 24 -31 36 -17 13 -35 33 -40 46 -5 12 -19 26
-31 31 -13 5 -32 23 -43 40 -11 17 -28 34 -37 37 -10 3 -26 18 -37 33 -11 16
-37 33 -59 39 -22 7 -42 19 -46 27 -3 8 -20 21 -38 28 -18 8 -45 26 -60 40
-18 16 -45 28 -75 33 -60 9 -92 20 -118 43 -22 20 -185 45 -267 42 -119 -4
-166 -4 -213 -1 -78 6 -213 -20 -278 -52 -31 -16 -77 -31 -102 -35 -31 -4 -56
-16 -80 -37 -19 -17 -55 -47 -81 -66 -26 -19 -56 -46 -68 -58 -23 -27 -68 -52
-89 -52 -8 0 -36 18 -63 40 -26 21 -60 42 -75 45 -15 3 -34 14 -44 25 -9 10
-41 28 -70 40 -31 12 -55 29 -58 40 -3 13 -19 20 -58 25 -38 5 -64 16 -87 36
-19 17 -50 32 -74 35 -23 4 -54 19 -73 36 -26 23 -48 30 -105 37 -40 5 -76 13
-79 18 -13 17 -51 32 -112 43 -71 12 -121 29 -115 39 2 3 -21 7 -52 8 -32 2
-86 8 -122 14 -46 8 -189 10 -480 5 -406 -5 -495 -10 -485 -26 8 -14 -73 -40
-124 -40 -36 0 -58 -7 -87 -26 -21 -15 -57 -29 -79 -31 -44 -6 -105 -41 -105
-60 0 -9 -17 -13 -50 -13 -44 0 -52 3 -60 25 -5 14 -20 27 -35 31 -14 3 -32
19 -40 34 -8 16 -26 30 -42 34 -49 12 -83 28 -83 40 0 16 -57 36 -101 36 -55
0 -111 19 -116 41 -5 18 -17 19 -208 19 -203 0 -204 0 -207 -22z m328 -100
c17 -9 54 -20 82 -24 29 -3 52 -10 52 -13 0 -14 57 -39 102 -46 57 -9 72 -20
87 -64 14 -42 -3 -66 -55 -75 -19 -4 -34 -11 -34 -16 0 -6 -17 -21 -37 -35
-84 -57 -113 -80 -222 -183 -196 -184 -301 -290 -301 -304 0 -8 -14 -27 -31
-44 -17 -16 -35 -38 -39 -49 -11 -28 -87 -35 -97 -9 -3 9 -1 19 5 23 25 15 41
187 45 490 4 263 7 306 20 316 9 6 54 17 100 24 46 7 90 16 97 21 25 15 192 6
226 -12z m1734 -68 c47 -6 121 -13 165 -15 186 -11 230 -17 258 -37 25 -18 59
-25 244 -54 18 -3 39 -11 46 -19 8 -7 37 -20 66 -29 29 -8 68 -29 87 -46 21
-18 46 -30 63 -30 16 0 37 -10 50 -24 12 -13 42 -29 66 -35 25 -6 57 -22 72
-36 67 -60 103 -86 144 -103 25 -11 57 -36 72 -56 28 -36 28 -36 9 -63 -11
-16 -26 -39 -35 -53 -9 -14 -24 -35 -33 -47 -8 -12 -17 -28 -18 -35 -2 -7 -6
-31 -11 -53 -4 -22 -16 -49 -25 -60 -10 -11 -24 -49 -30 -85 -7 -36 -21 -90
-32 -120 -17 -46 -21 -87 -26 -251 -4 -180 -3 -202 17 -265 11 -38 24 -91 27
-119 4 -27 19 -76 35 -107 16 -32 33 -87 39 -123 10 -61 7 -526 -5 -1025 -2
-91 -4 -173 -5 -182 0 -24 -47 -24 -77 0 -17 13 -25 34 -33 92 -6 41 -19 88
-28 105 -10 16 -28 55 -41 86 -12 31 -33 67 -46 79 -14 13 -22 27 -19 31 2 5
32 20 65 35 60 27 60 27 57 67 -4 51 -28 69 -57 43 -10 -10 -29 -16 -42 -14
-17 2 -23 11 -25 38 -10 112 -16 144 -28 154 -9 7 -16 42 -19 96 -9 135 -29
210 -54 210 -7 0 -13 6 -13 13 0 6 -6 3 -12 -8 -6 -11 -22 -32 -36 -47 -25
-27 -25 -27 -9 -80 9 -29 21 -84 27 -122 6 -38 23 -93 37 -123 35 -70 26 -106
-28 -111 -45 -4 -71 23 -76 80 -2 24 -16 60 -30 82 -14 21 -33 63 -44 94 -10
30 -23 60 -28 66 -6 7 -15 43 -21 81 -6 38 -20 83 -30 101 -20 31 -36 121 -46
254 -4 48 -12 82 -22 93 -22 25 -23 34 -31 180 -7 140 -12 152 -66 142 -37 -6
-72 -44 -53 -57 10 -6 10 -10 -2 -18 -13 -8 -12 -13 4 -41 15 -26 20 -63 26
-213 6 -141 13 -194 28 -241 12 -33 28 -116 37 -185 20 -160 39 -245 59 -265
19 -19 20 -38 6 -66 -8 -14 -21 -19 -50 -19 -32 0 -43 5 -57 28 -9 15 -29 47
-45 72 -16 24 -31 56 -34 70 -2 14 -17 50 -33 80 -16 30 -34 72 -41 94 -7 21
-23 54 -35 72 -13 19 -26 58 -30 91 -4 32 -15 76 -25 98 -10 22 -24 73 -29
113 -11 69 -25 109 -45 123 -5 4 -6 39 -1 80 4 41 8 112 9 159 2 55 8 98 19
122 9 21 17 53 17 72 0 32 -3 36 -35 42 -19 3 -50 3 -69 0 -28 -5 -33 -11 -34
-34 -3 -85 -33 -276 -46 -297 -9 -14 -16 -47 -17 -77 0 -29 -5 -75 -10 -103
-5 -27 -11 -59 -13 -70 -3 -24 -11 -45 -42 -109 -13 -28 -24 -62 -24 -78 0
-17 -7 -31 -19 -37 -21 -12 -41 -60 -41 -102 0 -29 -16 -73 -35 -99 -6 -8 -19
-42 -29 -75 -10 -33 -30 -84 -43 -114 -14 -29 -28 -74 -33 -100 -14 -81 -65
-196 -88 -199 -30 -5 -40 60 -31 198 13 178 12 836 -1 897 -11 51 -12 52 -45
51 -44 -2 -47 -16 -46 -193 1 -100 -4 -156 -15 -195 -14 -50 -29 -290 -28
-470 0 -105 17 -265 29 -280 45 -56 58 -135 26 -164 -26 -24 -42 -14 -134 84
-41 44 -80 80 -86 80 -6 0 -17 15 -25 33 -8 17 -26 46 -41 62 -15 17 -34 44
-42 60 -9 17 -24 36 -33 42 -10 7 -24 36 -30 65 -7 29 -20 69 -30 88 -26 54
-48 137 -60 225 -6 43 -16 82 -22 86 -16 10 -26 204 -21 384 4 135 4 141 -17
153 -23 14 -60 7 -60 -11 0 -7 -16 -26 -36 -42 -34 -29 -36 -33 -41 -112 -5
-72 -9 -85 -29 -98 -16 -10 -25 -28 -30 -62 -7 -52 -20 -82 -41 -98 -7 -5 -15
-34 -18 -63 -6 -57 -27 -152 -43 -193 -37 -92 -47 -167 -46 -334 0 -93 3 -186
7 -206 11 -54 -12 -56 -63 -6 -42 40 -43 43 -57 147 -8 58 -25 130 -38 160
-21 49 -24 78 -31 255 -17 404 -8 538 41 614 14 22 25 52 25 65 0 34 16 72 40
98 20 21 50 105 50 137 0 8 9 24 20 36 17 18 19 30 14 63 -3 22 -13 43 -20 46
-8 3 -14 2 -14 -3 0 -5 -16 -16 -36 -26 -22 -10 -41 -28 -47 -46 -6 -16 -14
-29 -18 -29 -4 0 -10 -12 -13 -27 -4 -14 -18 -34 -30 -44 -13 -10 -27 -35 -30
-54 -4 -20 -14 -39 -22 -42 -7 -3 -14 -11 -14 -19 0 -8 -4 -14 -9 -14 -5 0
-14 -23 -21 -50 -7 -28 -18 -53 -25 -58 -18 -10 -45 -67 -45 -94 0 -13 -8 -36
-18 -53 -10 -16 -24 -46 -32 -65 -7 -19 -24 -48 -36 -63 -13 -15 -26 -44 -30
-65 -3 -20 -17 -51 -30 -68 -13 -18 -28 -52 -33 -75 -15 -66 -37 -125 -59
-156 -11 -15 -23 -45 -26 -65 -4 -21 -12 -41 -19 -45 -29 -19 -36 -45 -52
-183 -4 -30 -12 -75 -20 -100 -7 -25 -23 -105 -35 -177 -20 -120 -21 -159 -17
-400 3 -148 10 -297 16 -333 5 -36 13 -90 17 -120 5 -36 15 -63 31 -80 28 -30
28 -37 4 -73 l-18 -28 -12 29 c-7 16 -29 39 -50 51 -38 21 -52 50 -57 117 0
12 -10 35 -21 50 -11 16 -23 47 -26 69 -4 22 -13 69 -21 105 -8 36 -20 88 -25
115 -11 55 -31 338 -32 455 0 41 -4 98 -8 125 -4 28 -3 66 1 85 4 19 14 113
23 209 15 161 18 177 43 209 23 30 27 46 28 101 1 90 -4 111 -24 104 -10 -4
-20 -11 -24 -16 -3 -6 -20 -10 -36 -9 -24 0 -31 -4 -37 -25 -3 -14 -3 -38 0
-54 4 -19 2 -34 -8 -44 -18 -17 -37 -99 -37 -155 0 -22 -4 -40 -8 -40 -4 0
-16 -22 -26 -49 -15 -41 -17 -85 -17 -292 1 -327 12 -460 47 -536 15 -34 34
-121 34 -160 0 -29 -43 -75 -63 -67 -9 3 -17 27 -22 62 -5 40 -14 65 -30 82
-18 18 -28 48 -39 111 -8 48 -24 102 -34 120 -15 25 -21 61 -25 139 -3 58 -11
155 -17 217 -18 182 -17 384 2 508 10 61 20 161 22 224 5 101 8 118 31 153 14
21 28 53 32 71 7 40 29 84 43 89 6 2 17 37 24 78 13 77 25 107 57 149 11 13
19 34 19 46 0 12 10 30 21 41 12 10 30 37 41 59 31 65 70 127 99 158 16 16 33
44 39 62 7 21 21 37 39 45 16 6 38 22 49 35 11 12 26 27 34 31 7 5 18 18 24
28 6 11 19 24 29 30 11 6 32 23 48 39 16 15 32 27 35 27 4 0 15 14 24 30 9 17
27 34 40 39 13 5 39 25 57 45 19 20 40 36 45 36 6 0 29 18 51 40 67 68 78 77
120 94 22 9 54 30 70 47 52 52 104 86 142 94 21 3 49 17 63 30 14 13 44 28 68
33 23 6 57 21 76 35 20 16 53 29 85 33 34 4 55 13 61 24 6 10 26 20 52 23 145
20 186 29 222 53 34 23 54 27 175 35 75 5 163 13 196 18 87 12 267 12 365 1z
m-2390 -165 c6 -4 2 -13 -11 -23 -13 -12 -25 -41 -35 -86 -14 -69 -36 -317
-28 -325 2 -3 -8 -13 -23 -23 -34 -22 -74 -23 -132 -2 -107 37 -142 76 -115
129 8 15 14 33 14 40 0 7 11 22 24 32 29 21 87 98 111 144 10 17 38 53 63 80
41 43 49 47 83 44 21 -2 43 -7 49 -10z m4800 -40 c25 -7 74 -16 110 -20 36 -4
79 -16 97 -27 18 -10 63 -28 102 -38 38 -11 81 -30 94 -42 14 -13 46 -39 73
-58 82 -60 254 -242 254 -268 0 -6 14 -22 30 -35 17 -14 30 -30 30 -35 0 -5
13 -28 29 -53 16 -24 32 -57 36 -74 4 -16 10 -39 15 -50 63 -159 64 -160 64
-350 1 -152 -2 -188 -18 -230 -25 -67 -47 -85 -107 -85 -54 0 -61 -8 -73 -74
-4 -22 -16 -58 -26 -80 -9 -23 -23 -60 -29 -83 -13 -47 -95 -139 -148 -166
-18 -10 -36 -23 -40 -31 -4 -7 -28 -24 -53 -36 -25 -13 -51 -31 -58 -41 -12
-17 -29 -19 -181 -19 -166 0 -168 0 -191 25 -13 14 -29 25 -36 25 -6 0 -26 14
-44 30 -18 17 -35 30 -39 30 -11 1 -61 49 -61 58 0 6 -7 12 -15 15 -8 4 -21
22 -29 41 -8 19 -23 37 -34 40 -14 5 -24 22 -32 55 -6 27 -20 58 -31 69 -12
14 -19 36 -19 62 0 22 -4 48 -9 58 -43 80 -51 114 -51 208 0 77 4 103 19 128
10 17 25 58 32 91 7 33 18 67 24 75 7 8 20 31 30 50 9 19 34 51 54 71 20 20
41 42 46 48 28 31 100 82 124 87 14 3 47 12 73 20 26 8 52 14 59 14 7 0 20 7
29 15 11 10 45 15 111 17 88 3 96 2 122 -22 50 -44 119 -53 148 -18 22 24 23
53 8 129 -6 30 -13 68 -16 84 -6 38 -81 111 -123 120 -16 4 -34 13 -38 22 -8
12 -45 16 -221 21 -207 5 -212 5 -217 -15 -4 -16 -19 -23 -62 -32 -44 -9 -63
-18 -81 -41 -13 -17 -32 -30 -43 -30 -26 0 -74 -26 -90 -48 -7 -11 -22 -24
-34 -30 -11 -6 -29 -27 -39 -46 -11 -20 -23 -36 -27 -36 -18 0 -98 -95 -109
-129 -6 -20 -22 -47 -34 -61 -13 -14 -29 -44 -36 -68 -7 -24 -21 -49 -32 -57
-53 -37 -73 -568 -27 -709 6 -16 10 -41 10 -56 0 -16 7 -30 15 -34 9 -3 23
-23 32 -43 8 -21 23 -45 34 -53 10 -9 28 -42 39 -73 12 -31 26 -57 31 -57 5 0
9 -5 9 -11 0 -16 48 -59 66 -59 7 0 14 -6 14 -12 0 -23 72 -90 117 -109 23
-10 43 -23 43 -28 0 -11 84 -41 115 -41 12 0 32 -9 45 -20 35 -30 56 -33 206
-27 151 6 174 -1 174 -56 0 -23 -3 -27 -19 -22 -10 3 -25 0 -33 -8 -7 -7 -18
-12 -25 -10 -6 2 -37 -5 -69 -15 -102 -34 -116 -35 -195 -8 -41 13 -105 30
-144 37 -38 7 -83 20 -100 30 -16 9 -55 22 -86 28 -36 8 -65 21 -79 36 -13 14
-41 34 -64 46 -22 12 -47 30 -54 40 -7 10 -22 19 -33 19 -18 0 -119 93 -119
110 0 4 -11 12 -25 18 -13 6 -32 26 -41 44 -9 18 -23 37 -30 41 -8 4 -21 22
-30 40 -9 18 -30 47 -45 65 -16 18 -29 41 -29 52 0 22 -20 70 -30 70 -3 0 -12
17 -19 38 -13 38 -47 125 -61 153 -4 8 -11 80 -15 160 -8 161 6 356 30 413 8
20 22 69 30 108 9 40 24 82 34 93 14 15 41 107 41 141 0 1 6 9 13 16 21 22 47
67 47 81 0 7 11 24 25 37 14 13 25 31 25 41 0 9 32 43 71 74 38 32 75 65 82
74 24 31 93 70 157 87 36 10 76 26 90 35 14 10 63 22 114 29 50 6 95 14 100
18 14 8 163 19 201 14 17 -2 50 -9 75 -17z m-5196 -640 c9 -14 22 -25 30 -25
17 0 50 -29 64 -57 8 -14 25 -23 54 -28 96 -16 133 -60 123 -145 -4 -33 -2
-82 4 -112 10 -46 9 -58 -7 -88 -9 -19 -29 -46 -43 -60 -17 -17 -28 -42 -32
-72 -3 -25 -16 -62 -27 -81 -12 -20 -25 -64 -30 -98 -11 -77 -25 -93 -71 -82
-27 7 -39 19 -59 58 -14 28 -36 67 -48 88 -18 28 -26 60 -32 130 -5 51 -16
107 -25 126 -21 39 -16 148 7 162 10 6 13 40 14 131 0 68 4 135 8 151 11 35
47 37 70 2z m546 -1055 c0 -5 -2 -10 -4 -10 -3 0 -8 5 -11 10 -3 6 -1 10 4 10
6 0 11 -4 11 -10z m540 -57 c33 -19 44 -48 28 -77 -6 -11 -13 -59 -16 -108 -4
-69 -1 -92 11 -111 9 -14 18 -53 22 -88 12 -128 16 -148 40 -183 13 -20 29
-53 35 -75 6 -22 22 -49 37 -61 28 -22 28 -22 -4 -39 -44 -23 -116 -9 -181 36
-59 39 -132 22 -132 -31 0 -33 37 -85 65 -91 14 -3 37 -7 51 -10 14 -3 39 -16
56 -28 26 -19 43 -22 126 -23 107 0 130 -6 142 -39 6 -15 22 -26 49 -33 41
-10 41 -10 62 28 l21 37 72 -3 c39 -2 103 -6 141 -8 94 -6 155 6 177 36 10 12
23 29 28 35 6 7 20 28 31 48 12 19 28 35 36 35 16 0 90 -74 119 -117 8 -13 20
-23 27 -23 14 0 85 -72 111 -111 11 -17 30 -29 52 -34 53 -9 72 1 80 43 3 20
19 57 35 81 22 33 29 57 29 91 0 82 39 86 117 11 38 -36 10 -34 358 -21 266
10 354 21 395 49 14 10 44 21 68 25 40 6 46 4 69 -23 l27 -30 33 30 c19 16 41
29 51 30 9 0 26 2 36 4 31 6 50 -10 87 -71 19 -31 46 -69 60 -83 15 -14 30
-43 33 -63 4 -21 18 -50 31 -66 13 -16 31 -59 41 -95 9 -37 27 -79 39 -94 48
-55 45 -239 -5 -330 -16 -28 -35 -73 -41 -100 -6 -26 -22 -59 -34 -73 -13 -14
-28 -44 -34 -67 -7 -23 -20 -48 -30 -55 -10 -7 -25 -33 -32 -56 -8 -29 -21
-48 -40 -57 -14 -8 -29 -25 -33 -37 -3 -13 -19 -37 -36 -55 -16 -18 -30 -36
-30 -41 0 -5 -11 -19 -26 -32 -14 -14 -34 -44 -44 -67 -10 -24 -23 -43 -29
-43 -6 0 -17 -15 -26 -33 -8 -18 -29 -41 -45 -51 -25 -14 -30 -23 -30 -56 0
-21 3 -45 6 -54 9 -24 85 -21 116 4 19 14 156 60 181 60 2 0 17 11 33 25 18
16 41 25 62 25 36 0 81 20 101 44 8 9 21 16 30 16 9 0 32 13 51 29 19 15 49
35 67 44 17 10 38 25 45 35 7 11 28 27 46 36 35 18 172 149 172 164 0 5 10 14
23 21 13 7 28 25 34 42 6 16 22 33 36 38 14 5 34 23 47 40 12 17 26 31 31 31
5 0 23 15 39 33 29 34 111 67 165 67 28 0 88 -31 115 -59 29 -30 42 -76 41
-144 0 -67 -13 -99 -58 -145 -7 -7 -20 -26 -29 -42 -10 -16 -28 -31 -41 -35
-13 -3 -32 -14 -42 -24 -20 -20 -78 -51 -94 -51 -6 0 -23 -12 -38 -26 -31 -30
-79 -43 -169 -45 -64 -2 -140 20 -140 39 0 5 -12 14 -27 21 -38 17 -53 -6 -53
-82 0 -61 -12 -97 -33 -97 -7 0 -37 -16 -67 -35 -30 -19 -62 -35 -72 -35 -9 0
-32 -13 -50 -29 -41 -35 -71 -51 -95 -51 -11 0 -28 -8 -39 -18 -23 -22 -77
-42 -113 -42 -15 0 -42 -13 -61 -30 -19 -16 -46 -30 -60 -30 -26 -1 -67 -20
-114 -54 -24 -17 -80 -36 -196 -67 -19 -5 -71 -16 -115 -24 -44 -8 -92 -24
-106 -34 -17 -13 -63 -25 -130 -36 -57 -8 -137 -24 -178 -35 -63 -17 -105 -20
-275 -19 -111 0 -221 4 -246 9 -86 17 -105 23 -120 35 -8 8 -44 19 -79 25 -35
6 -80 22 -100 35 -26 18 -60 27 -125 34 -66 8 -95 16 -111 31 -13 12 -35 20
-56 20 -51 0 -106 18 -135 45 -14 13 -47 28 -73 35 -27 6 -59 22 -72 36 -12
13 -30 24 -38 24 -31 0 -88 20 -110 39 -11 10 -41 24 -66 31 -25 7 -54 23 -64
36 -10 13 -38 28 -64 35 -29 7 -52 20 -62 36 -9 13 -27 28 -41 33 -13 5 -29
20 -35 34 -6 13 -21 28 -34 34 -15 7 -24 22 -28 50 -4 21 -19 56 -33 77 -16
24 -30 63 -35 99 -5 34 -13 78 -18 98 -7 31 -5 42 11 63 28 35 41 31 67 -19
12 -25 31 -48 42 -51 11 -4 32 -18 47 -32 14 -13 28 -20 30 -14 2 6 11 11 19
11 14 0 15 11 10 76 -6 71 -9 78 -42 107 l-35 32 -10 145 c-5 80 -16 163 -24
185 -22 57 -23 611 -1 639 14 19 31 86 39 160 3 22 14 51 24 66 21 27 29 57
37 130 13 122 18 142 41 169 13 16 24 35 24 43 0 7 13 40 30 73 16 33 30 76
30 96 0 33 9 59 33 97 10 16 13 15 47 -5z m1801 -25 c12 -15 18 -39 19 -69 0
-32 9 -64 30 -102 17 -31 30 -63 30 -70 0 -7 14 -29 30 -47 17 -18 30 -40 30
-48 0 -23 162 -202 184 -202 7 0 24 -13 37 -28 13 -16 32 -32 42 -35 11 -4 17
-14 15 -24 -5 -25 -85 -44 -135 -32 -51 11 -418 -6 -460 -21 -27 -10 -42 -9
-82 5 -47 15 -50 18 -59 62 -11 52 0 96 41 160 14 21 28 54 32 73 4 18 20 47
36 63 16 16 29 33 29 38 0 5 11 27 25 48 13 22 27 63 31 93 12 99 22 124 57
142 42 20 45 20 68 -6z m-1219 -60 c3 -7 5 -43 6 -80 2 -86 17 -152 42 -186
10 -15 27 -49 36 -77 9 -27 22 -57 30 -66 8 -8 19 -30 25 -48 6 -17 13 -30 16
-27 3 2 22 -14 44 -37 43 -46 49 -78 21 -115 -16 -20 -31 -24 -122 -33 -58 -5
-137 -14 -176 -20 -81 -11 -97 -7 -113 27 -9 20 -8 37 4 77 8 29 19 113 24
187 7 102 14 146 30 180 12 28 21 66 21 100 1 53 16 90 37 90 5 0 18 9 28 20
21 23 41 26 47 8z m2565 -60 c6 -5 14 -22 18 -37 3 -16 17 -39 31 -51 13 -13
24 -26 24 -30 0 -11 87 -100 98 -100 5 0 22 -16 36 -35 15 -19 32 -35 38 -35
6 0 19 -7 29 -16 10 -9 32 -23 50 -32 18 -10 42 -34 53 -54 19 -34 20 -49 15
-145 -3 -60 -9 -118 -12 -131 -3 -13 -11 -76 -17 -140 -21 -225 -24 -240 -53
-270 -15 -15 -27 -37 -27 -49 0 -28 -20 -83 -31 -83 -13 0 -35 -58 -43 -114
-4 -28 -19 -64 -32 -81 -13 -18 -24 -38 -24 -46 0 -8 -18 -36 -40 -64 -22 -27
-40 -55 -40 -62 0 -7 -13 -22 -29 -34 -16 -12 -32 -32 -35 -44 -3 -12 -17 -30
-30 -38 -13 -9 -34 -34 -46 -55 -14 -24 -41 -50 -71 -68 -27 -15 -49 -34 -49
-41 0 -7 -12 -20 -27 -30 -16 -10 -36 -28 -46 -40 -10 -13 -26 -23 -36 -23
-10 0 -33 -11 -52 -25 -19 -14 -52 -34 -75 -45 -22 -10 -52 -31 -67 -44 -46
-43 -129 -48 -135 -9 -2 15 19 44 78 103 44 45 87 97 96 115 8 18 23 35 33 38
10 2 25 25 35 53 10 27 26 56 35 64 20 18 38 62 45 113 2 21 16 51 30 68 14
17 26 36 26 42 0 28 22 88 38 103 11 11 19 42 24 83 11 113 19 165 28 186 34
77 42 111 47 198 3 53 10 97 14 97 5 0 9 10 9 23 0 12 7 40 14 62 10 29 15
112 17 310 3 272 -4 399 -24 423 -9 11 -3 12 29 7 21 -4 44 -12 51 -17z m758
-481 c26 -22 27 -24 14 -67 -7 -25 -22 -56 -35 -70 -12 -14 -30 -49 -39 -78
-10 -29 -28 -61 -41 -71 -13 -10 -24 -26 -24 -36 0 -9 -6 -23 -14 -31 -8 -7
-16 -19 -18 -24 -2 -6 -22 -14 -44 -17 -30 -4 -43 -1 -54 12 -12 15 -12 19 3
30 17 12 47 84 47 114 0 9 9 35 21 56 14 26 23 64 25 110 4 83 16 95 85 95 35
0 55 -6 74 -23z m393 -160 c7 -18 12 -43 12 -54 0 -28 25 -87 44 -103 9 -7 16
-21 16 -31 0 -11 16 -36 35 -56 19 -20 35 -42 35 -48 0 -6 13 -24 28 -41 16
-16 34 -44 41 -61 8 -18 19 -33 26 -33 15 0 98 -79 121 -115 8 -13 27 -25 43
-28 23 -5 97 -56 123 -85 39 -44 136 -132 146 -132 5 0 15 -12 22 -27 8 -16
20 -36 28 -45 12 -14 11 -19 -5 -35 -17 -17 -68 -115 -107 -206 -9 -21 -21
-43 -27 -50 -6 -7 -20 -30 -33 -52 -19 -36 -26 -40 -66 -43 -48 -4 -120 13
-120 28 0 5 -27 19 -61 31 -43 16 -64 30 -74 50 -8 15 -21 33 -28 41 -20 20
-89 126 -116 177 -13 25 -27 48 -32 51 -4 3 -15 23 -24 44 -9 21 -27 55 -40
75 -13 20 -30 62 -38 93 -8 31 -26 69 -41 85 -14 15 -26 39 -26 53 0 28 -34
90 -50 90 -17 0 -11 90 8 118 31 46 41 94 43 195 2 95 2 98 28 111 14 7 32 11
39 9 6 -3 12 2 12 11 0 29 26 17 38 -17z m-316 -168 c15 -30 16 -40 4 -85 -14
-55 -29 -85 -50 -106 -7 -8 -21 -28 -30 -45 -8 -17 -25 -34 -36 -38 -11 -4
-26 -18 -34 -33 -8 -15 -26 -40 -41 -57 -15 -16 -46 -50 -69 -75 -22 -25 -62
-70 -88 -101 -59 -70 -97 -89 -133 -65 -14 9 -25 22 -25 30 0 29 30 109 47
127 10 9 38 43 63 74 25 31 77 89 115 129 39 40 81 90 95 110 14 21 37 50 51
64 14 15 34 41 43 59 16 33 43 54 61 50 6 -2 18 -19 27 -38z m30 -331 c-11
-18 -25 -52 -31 -74 -6 -23 -25 -58 -41 -79 -16 -21 -35 -55 -41 -77 -5 -21
-17 -42 -25 -45 -7 -3 -14 -10 -14 -15 0 -5 -9 -23 -21 -39 -26 -37 -70 -39
-103 -6 -34 34 -24 71 36 132 28 28 56 62 64 77 7 14 24 35 37 45 13 10 29 35
36 54 7 21 22 41 36 47 13 6 30 20 37 32 12 19 13 19 32 1 18 -19 18 -20 -2
-53z m-1657 -1634 c46 -11 205 -147 205 -175 0 -6 11 -19 23 -30 13 -10 32
-38 41 -64 10 -25 22 -45 27 -45 6 0 22 -25 36 -56 22 -49 24 -59 12 -80 -7
-14 -24 -27 -38 -31 -14 -3 -35 -12 -46 -19 -11 -6 -52 -18 -92 -24 -44 -8
-81 -21 -96 -34 -14 -12 -60 -30 -101 -40 -42 -10 -74 -21 -71 -26 7 -11 -17
-19 -108 -36 -46 -9 -92 -25 -114 -39 -27 -19 -49 -25 -89 -25 -41 0 -59 -5
-82 -25 -17 -14 -35 -25 -41 -25 -6 0 -11 -4 -11 -10 0 -5 -18 -10 -40 -10
-25 0 -47 -7 -58 -18 -25 -24 -58 -38 -125 -52 -35 -7 -61 -18 -66 -29 -6 -10
-29 -24 -53 -31 -24 -8 -58 -27 -76 -42 -18 -15 -41 -28 -52 -28 -21 0 -133
-104 -143 -132 -9 -26 -78 -24 -102 2 -16 18 -16 20 -1 26 9 4 26 25 38 48 11
22 28 50 38 61 9 11 26 35 36 54 10 18 30 46 44 62 14 15 41 47 60 69 19 23
44 50 55 61 11 11 23 23 27 27 4 4 26 29 50 55 24 27 59 64 80 83 20 20 39 46
42 60 4 13 11 24 16 24 13 0 120 113 120 127 0 7 6 13 13 13 12 0 31 20 144
146 18 20 35 45 38 55 4 11 13 19 22 19 8 0 30 16 48 35 19 19 47 37 62 41 15
3 38 18 50 31 17 21 34 27 85 33 68 8 146 6 193 -6z m-1177 -135 c19 -7 22
-16 22 -57 0 -41 -4 -51 -28 -69 -25 -18 -31 -33 -41 -96 -7 -41 -20 -89 -30
-108 -14 -25 -20 -68 -25 -164 -4 -72 -9 -155 -11 -185 -2 -30 -4 -99 -5 -152
0 -108 1 -106 -68 -92 -26 5 -34 14 -49 53 -20 52 -90 146 -114 154 -9 2 -22
22 -29 43 -7 22 -18 46 -26 54 -33 39 -54 112 -56 203 -4 139 6 180 56 233 23
24 46 44 50 44 8 0 77 55 124 99 14 13 39 29 56 37 33 15 137 16 174 3z m561
2 c12 -8 13 -14 3 -36 -6 -14 -19 -28 -27 -31 -8 -4 -15 -14 -15 -23 0 -10
-17 -27 -39 -39 -21 -12 -73 -57 -116 -100 -102 -103 -118 -121 -145 -162 -13
-19 -37 -46 -53 -60 -16 -14 -47 -40 -69 -59 -34 -29 -41 -32 -53 -20 -31 31
-16 204 23 264 21 33 25 51 25 105 -1 36 1 73 3 82 8 27 67 37 180 31 90 -5
107 -4 123 11 40 36 129 56 160 37z m1027 -467 c41 -20 52 -51 60 -179 4 -49
15 -112 25 -140 10 -27 24 -97 29 -155 15 -147 33 -139 -270 -135 -280 4 -276
3 -260 86 6 28 10 122 10 208 l0 156 44 43 c31 30 52 42 73 42 19 0 42 11 63
30 18 17 43 30 54 30 12 0 41 7 66 14 59 19 66 19 106 0z m-545 -160 c7 -9 12
-31 10 -48 -16 -152 -17 -192 -8 -274 8 -79 8 -96 -5 -108 -13 -13 -81 -15
-482 -16 -414 0 -469 2 -491 16 -23 15 -37 35 -16 21 5 -3 12 -1 16 5 3 5 26
18 50 29 25 11 45 24 45 29 0 12 55 32 88 32 13 0 37 11 53 25 16 13 46 27 67
30 42 7 82 25 97 42 6 7 33 19 60 29 28 9 60 25 72 36 14 13 45 23 94 29 49 6
79 15 94 29 11 10 50 27 85 36 45 11 73 25 92 45 30 32 59 37 79 13z m-1637
-36 c11 -41 6 -73 -16 -113 -18 -33 -23 -60 -26 -152 -4 -95 -7 -114 -24 -129
-17 -17 -23 -17 -61 -3 -41 14 -42 15 -38 54 1 21 9 44 17 50 12 9 23 45 42
140 5 27 15 43 30 50 14 6 22 19 22 33 0 27 28 92 40 92 4 0 10 -10 14 -22z
m150 -107 c14 -22 30 -42 36 -46 6 -4 15 -18 20 -31 5 -13 21 -29 34 -34 14
-5 30 -18 36 -29 6 -12 24 -28 39 -36 28 -14 61 -64 61 -91 0 -28 -42 -43 -98
-34 -30 5 -93 8 -142 8 -110 -2 -122 5 -113 70 3 26 17 78 30 116 12 38 23 81
23 96 0 28 16 50 37 50 7 0 24 -18 37 -39z"/>
<path d="M2871 3223 c-50 -3 -68 -8 -78 -24 -8 -10 -23 -19 -34 -19 -12 0 -23
-10 -30 -27 -17 -45 9 -56 115 -49 93 6 116 0 116 -34 0 -21 -22 -32 -67 -35
-57 -4 -102 -16 -110 -28 -5 -7 -28 -25 -51 -40 -24 -16 -51 -42 -60 -58 -10
-16 -20 -29 -24 -29 -7 0 10 -48 22 -63 12 -14 59 4 65 24 4 11 30 31 58 44
29 13 63 30 77 38 89 51 171 68 200 42 11 -10 20 -24 20 -31 0 -29 22 -62 40
-57 18 5 37 -25 23 -38 -15 -13 -104 -39 -137 -39 -19 0 -49 11 -70 25 -46 31
-52 31 -72 0 -14 -21 -16 -41 -11 -111 5 -71 12 -98 42 -157 19 -40 35 -78 35
-84 0 -13 50 -63 63 -63 4 0 19 -12 34 -26 32 -32 51 -39 149 -54 43 -7 84
-13 89 -14 6 -1 16 -5 23 -9 7 -5 18 -2 27 6 8 8 41 18 74 22 81 9 99 29 80
87 -7 24 -26 57 -41 74 -29 32 -29 58 -2 68 9 4 12 2 8 -5 -4 -8 1 -9 17 -4
13 4 26 7 29 7 23 0 33 -7 55 -42 15 -23 33 -40 44 -40 24 0 69 59 93 123 17
45 18 59 8 116 -11 65 -34 120 -54 133 -15 10 -18 78 -2 84 26 10 93 -30 149
-88 31 -34 57 -64 57 -67 0 -4 19 -19 42 -34 l41 -27 19 31 c28 46 16 75 -59
154 -36 39 -72 80 -80 92 -9 13 -33 28 -54 33 -21 6 -50 21 -64 34 -13 12 -50
28 -82 36 -32 7 -71 18 -88 25 -16 7 -57 15 -90 19 -76 9 -217 43 -225 56 -9
14 -217 29 -329 23z m547 -345 c7 -7 12 -36 12 -65 0 -45 -4 -55 -25 -69 -21
-14 -28 -14 -41 -3 -13 10 -14 24 -9 68 9 75 32 100 63 69z m-138 -123 c0 -28
-4 -35 -19 -35 -18 0 -18 2 -2 35 9 19 17 34 19 35 1 0 2 -16 2 -35z m-42
-152 c-5 -26 -38 -29 -38 -4 0 15 6 21 21 21 14 0 19 -5 17 -17z"/>
<path d="M1566 3149 c-66 -5 -122 -13 -125 -17 -8 -11 -59 -29 -103 -37 -21
-3 -50 -16 -65 -29 -15 -13 -38 -26 -49 -30 -20 -6 -36 -19 -105 -83 -53 -48
-63 -64 -63 -98 0 -51 15 -61 57 -41 19 9 43 16 54 16 10 0 42 25 71 55 47 48
59 55 93 55 43 0 62 -20 74 -77 3 -17 17 -39 31 -47 29 -20 31 -40 5 -58 -15
-10 -38 -12 -92 -7 -62 5 -76 10 -96 33 -13 15 -23 34 -23 42 0 20 -30 17 -31
-3 -1 -10 -3 -27 -5 -38 -15 -77 -15 -94 0 -117 9 -14 13 -28 9 -33 -5 -4 -3
-5 4 -1 8 4 15 -3 19 -21 9 -36 53 -113 65 -113 5 0 19 -16 31 -35 24 -36 52
-50 126 -60 23 -3 58 -15 76 -26 36 -21 67 -19 116 7 14 7 54 18 90 23 37 6
70 18 77 26 22 31 -28 145 -63 145 -9 0 -14 7 -12 18 5 24 118 31 138 8 16
-20 44 -20 60 -1 9 10 11 34 6 77 -11 111 -16 128 -48 144 -34 18 -34 47 0 52
15 2 25 -4 34 -22 10 -23 17 -26 60 -26 34 0 50 -5 54 -15 9 -21 25 -19 17 3
-21 61 -67 144 -86 153 -39 21 -106 80 -112 99 -3 10 -17 21 -31 24 -14 4 -29
18 -34 31 -7 18 -17 25 -37 25 -16 0 -37 2 -48 4 -11 2 -74 0 -139 -5z m99
-319 c0 -36 -29 -33 -33 3 -3 23 0 28 15 25 12 -2 18 -12 18 -28z"/>
<path d="M2617 1953 c-4 -3 -7 -14 -7 -23 0 -10 -21 -36 -46 -59 l-45 -42
-137 2 c-75 2 -151 0 -168 -5 -28 -6 -31 -11 -30 -43 1 -35 3 -38 59 -59 59
-23 65 -23 149 -3 26 6 77 12 114 12 73 2 67 7 103 -78 21 -48 24 -50 65 -52
64 -4 79 11 70 75 -4 33 -11 52 -20 52 -24 0 -42 53 -47 140 -3 47 -6 86 -6
88 -2 5 -48 2 -54 -5z"/>
</g>
</svg>
